<svg width="81" height="68" viewBox="0 0 81 68" fill="none" xmlns="http://www.w3.org/2000/svg">
<g filter="url(#filter0_d_128_3)">
<path d="M79.7311 3.78649C79.9512 3.78649 80.1299 3.59974 80.1299 3.36937C80.1299 3.13903 79.9512 2.95227 79.7311 2.95227C79.5109 2.95227 79.3323 3.13903 79.3323 3.36937C79.3323 3.59974 79.5109 3.78649 79.7311 3.78649Z" fill="url(#paint0_linear_128_3)"/>
</g>
<g filter="url(#filter1_d_128_3)">
<path d="M13.9493 14.2851C14.5208 14.2851 14.984 13.8006 14.984 13.203C14.984 12.6054 14.5208 12.1209 13.9493 12.1209C13.3779 12.1209 12.9146 12.6054 12.9146 13.203C12.9146 13.8006 13.3779 14.2851 13.9493 14.2851Z" fill="url(#paint1_linear_128_3)"/>
</g>
<g filter="url(#filter2_d_128_3)">
<path d="M3.29219 45.9787C3.86363 45.9787 4.32688 45.4944 4.32688 44.8966C4.32688 44.299 3.86363 43.8147 3.29219 43.8147C2.72074 43.8147 2.25749 44.299 2.25749 44.8966C2.25749 45.4944 2.72074 45.9787 3.29219 45.9787Z" fill="url(#paint2_linear_128_3)"/>
</g>
<g filter="url(#filter3_d_128_3)">
<path d="M64.5537 54.6792C65.125 54.6792 65.5883 54.1946 65.5883 53.597C65.5883 52.9995 65.125 52.5149 64.5537 52.5149C63.9821 52.5149 63.5188 52.9995 63.5188 53.597C63.5188 54.1946 63.9821 54.6792 64.5537 54.6792Z" fill="url(#paint3_linear_128_3)"/>
</g>
<g filter="url(#filter4_d_128_3)">
<path d="M16.0981 36.3571C16.3184 36.3571 16.497 36.1702 16.497 35.9399C16.497 35.7095 16.3184 35.5227 16.0981 35.5227C15.8779 35.5227 15.6993 35.7095 15.6993 35.9399C15.6993 36.1702 15.8779 36.3571 16.0981 36.3571Z" fill="url(#paint4_linear_128_3)"/>
</g>
<g filter="url(#filter5_d_128_3)">
<path d="M31.3792 2.68604C31.7253 2.68604 32.0058 2.39259 32.0058 2.03058C32.0058 1.66858 31.7253 1.37512 31.3792 1.37512C31.0329 1.37512 30.7523 1.66858 30.7523 2.03058C30.7523 2.39259 31.0329 2.68604 31.3792 2.68604Z" fill="url(#paint5_linear_128_3)"/>
</g>
<g filter="url(#filter6_d_128_3)">
<path d="M7.68882 31.8845C7.48493 31.9168 7.29524 31.7866 7.23492 31.569C6.66952 29.6366 6.37216 29.4022 4.52307 29.4729C4.30968 29.4793 4.12182 29.3217 4.09109 29.1085C4.05995 28.8925 4.1929 28.6901 4.39778 28.6245C6.16637 28.0761 6.3568 27.8101 6.40063 25.7847C6.40585 25.56 6.54463 25.3778 6.74569 25.346C6.9524 25.3132 7.13926 25.4444 7.20524 25.6607C7.76455 27.591 8.06191 27.8255 9.90817 27.755C10.1277 27.7507 10.3118 27.9034 10.3434 28.1222C10.3741 28.3352 10.2468 28.5368 10.0363 28.6035C8.26572 29.158 8.07771 29.4206 8.03954 31.445C8.02909 31.6738 7.88705 31.8535 7.68882 31.8845Z" fill="url(#paint6_linear_128_3)"/>
</g>
<path d="M49.3128 15.7683C48.7751 15.9807 48.4168 16.518 48.4168 17.1176C48.4168 17.7172 48.7751 18.2542 49.3128 18.4666C53.601 20.1493 56.9848 23.6881 58.594 28.173C58.7969 28.735 59.3106 29.1101 59.8839 29.1101C60.4573 29.1101 60.971 28.735 61.1739 28.173C62.7831 23.6881 66.1669 20.1493 70.4551 18.4666C70.9928 18.2542 71.3511 17.7172 71.3511 17.1176C71.3511 16.518 70.9928 15.9807 70.4551 15.7683C66.1669 14.0856 62.7831 10.5467 61.1739 6.0619C60.971 5.49976 60.4573 5.125 59.8839 5.125C59.3106 5.125 58.7969 5.49976 58.594 6.0619C56.9848 10.5467 53.601 14.0856 49.3128 15.7683ZM34.6922 14.2818C34.3815 13.5697 33.7006 13.1201 32.9601 13.1201C32.2196 13.1201 31.5387 13.5697 31.2281 14.2818C27.1578 23.4725 20.0949 30.8562 11.3039 35.1064C10.6231 35.4308 10.193 36.1429 10.193 36.9298C10.193 37.717 10.6231 38.4163 11.3039 38.7413C20.0919 42.986 27.1606 50.3735 31.2161 59.5659C31.5268 60.278 32.2077 60.7275 32.9481 60.7275C33.6887 60.7275 34.3695 60.278 34.6802 59.5659C38.7434 50.3653 45.8066 42.9784 54.6042 38.7287C55.2851 38.4043 55.7153 37.6922 55.7153 36.9175C55.7153 36.1429 55.2851 35.4308 54.6042 35.1064C45.8148 30.8649 38.751 23.4723 34.6922 14.2818ZM58.594 46.0367C56.9848 50.5216 53.601 54.0604 49.3128 55.7432C48.7751 55.9556 48.4168 56.493 48.4168 57.0926C48.4168 57.6922 48.7751 58.2291 49.3128 58.4415C53.601 60.1243 56.9848 63.6631 58.594 68.148C58.7969 68.7099 59.3106 69.0848 59.8839 69.0848C60.4573 69.0848 60.971 68.7099 61.1739 68.148C62.7831 63.6631 66.1669 60.1243 70.4551 58.4415C70.9928 58.2291 71.3511 57.6922 71.3511 57.0926C71.3511 56.493 70.9928 55.9556 70.4551 55.7432C66.1669 54.0604 62.7831 50.5216 61.1739 46.0367C60.971 45.4747 60.4573 45.1001 59.8839 45.1001C59.3106 45.1001 58.7969 45.4747 58.594 46.0367Z" fill="url(#paint7_linear_128_3)"/>
<path d="M32.5193 40.0322C14.2633 46.6629 0.338453 54.6717 1.41728 57.9205C2.49611 61.169 18.1701 58.4273 36.426 51.7966C54.682 45.1659 68.6069 37.1571 67.528 33.9086C66.4491 30.6599 50.7753 33.4015 32.5193 40.0322Z" stroke="url(#paint8_linear_128_3)" stroke-width="0.549291"/>
<g style="mix-blend-mode:screen" filter="url(#filter7_f_128_3)">
<path d="M32.5193 40.0317C14.2633 46.6624 0.338453 54.6712 1.41728 57.9197C2.49611 61.1684 18.1701 58.4268 36.426 51.7961C54.682 45.1654 68.6069 37.1566 67.528 33.9078C66.4491 30.6591 50.7753 33.401 32.5193 40.0317Z" stroke="url(#paint9_linear_128_3)" stroke-width="0.549291"/>
</g>
<g filter="url(#filter8_d_128_3)">
<path d="M60.2961 17.6771C60.0147 17.635 59.8137 17.384 59.8165 17.0719C59.8035 14.2854 59.4997 13.8523 57.031 13.1778C56.7468 13.0979 56.5585 12.8111 56.5988 12.5172C56.6398 12.219 56.8924 12.0069 57.1877 12.0052C59.7314 12.0154 60.084 11.743 60.9107 9.08671C61.0029 8.7921 61.2555 8.60901 61.533 8.65057C61.8184 8.69334 62.0154 8.9438 62.0202 9.25719C62.0263 12.0383 62.3298 12.4716 64.7947 13.1453C65.0863 13.2306 65.2715 13.5086 65.2302 13.8108C65.19 14.1047 64.9451 14.3182 64.6419 14.3187C62.0931 14.316 61.745 14.5847 60.9262 17.2422C60.8256 17.5399 60.5697 17.7182 60.2961 17.6771Z" fill="url(#paint10_linear_128_3)"/>
</g>
<defs>
<filter id="filter0_d_128_3" x="78.9908" y="2.61078" width="1.48058" height="1.5172" filterUnits="userSpaceOnUse" color-interpolation-filters="sRGB">
<feFlood flood-opacity="0" result="BackgroundImageFix"/>
<feColorMatrix in="SourceAlpha" type="matrix" values="0 0 0 0 0 0 0 0 0 0 0 0 0 0 0 0 0 0 127 0" result="hardAlpha"/>
<feOffset/>
<feGaussianBlur stdDeviation="0.170743"/>
<feComposite in2="hardAlpha" operator="out"/>
<feColorMatrix type="matrix" values="0 0 0 0 0.592157 0 0 0 0 0.392157 0 0 0 0 1 0 0 0 1 0"/>
<feBlend mode="normal" in2="BackgroundImageFix" result="effect1_dropShadow_128_3"/>
<feBlend mode="normal" in="SourceGraphic" in2="effect1_dropShadow_128_3" result="shape"/>
</filter>
<filter id="filter1_d_128_3" x="12.0287" y="11.235" width="3.84116" height="3.93598" filterUnits="userSpaceOnUse" color-interpolation-filters="sRGB">
<feFlood flood-opacity="0" result="BackgroundImageFix"/>
<feColorMatrix in="SourceAlpha" type="matrix" values="0 0 0 0 0 0 0 0 0 0 0 0 0 0 0 0 0 0 127 0" result="hardAlpha"/>
<feOffset/>
<feGaussianBlur stdDeviation="0.442949"/>
<feComposite in2="hardAlpha" operator="out"/>
<feColorMatrix type="matrix" values="0 0 0 0 0.592157 0 0 0 0 0.392157 0 0 0 0 1 0 0 0 1 0"/>
<feBlend mode="normal" in2="BackgroundImageFix" result="effect1_dropShadow_128_3"/>
<feBlend mode="normal" in="SourceGraphic" in2="effect1_dropShadow_128_3" result="shape"/>
</filter>
<filter id="filter2_d_128_3" x="1.37159" y="42.9288" width="3.84118" height="3.9358" filterUnits="userSpaceOnUse" color-interpolation-filters="sRGB">
<feFlood flood-opacity="0" result="BackgroundImageFix"/>
<feColorMatrix in="SourceAlpha" type="matrix" values="0 0 0 0 0 0 0 0 0 0 0 0 0 0 0 0 0 0 127 0" result="hardAlpha"/>
<feOffset/>
<feGaussianBlur stdDeviation="0.442949"/>
<feComposite in2="hardAlpha" operator="out"/>
<feColorMatrix type="matrix" values="0 0 0 0 0.592157 0 0 0 0 0.392157 0 0 0 0 1 0 0 0 1 0"/>
<feBlend mode="normal" in2="BackgroundImageFix" result="effect1_dropShadow_128_3"/>
<feBlend mode="normal" in="SourceGraphic" in2="effect1_dropShadow_128_3" result="shape"/>
</filter>
<filter id="filter3_d_128_3" x="62.6329" y="51.629" width="3.84124" height="3.9361" filterUnits="userSpaceOnUse" color-interpolation-filters="sRGB">
<feFlood flood-opacity="0" result="BackgroundImageFix"/>
<feColorMatrix in="SourceAlpha" type="matrix" values="0 0 0 0 0 0 0 0 0 0 0 0 0 0 0 0 0 0 127 0" result="hardAlpha"/>
<feOffset/>
<feGaussianBlur stdDeviation="0.442949"/>
<feComposite in2="hardAlpha" operator="out"/>
<feColorMatrix type="matrix" values="0 0 0 0 0.592157 0 0 0 0 0.392157 0 0 0 0 1 0 0 0 1 0"/>
<feBlend mode="normal" in2="BackgroundImageFix" result="effect1_dropShadow_128_3"/>
<feBlend mode="normal" in="SourceGraphic" in2="effect1_dropShadow_128_3" result="shape"/>
</filter>
<filter id="filter4_d_128_3" x="15.3578" y="35.1812" width="1.48066" height="1.51732" filterUnits="userSpaceOnUse" color-interpolation-filters="sRGB">
<feFlood flood-opacity="0" result="BackgroundImageFix"/>
<feColorMatrix in="SourceAlpha" type="matrix" values="0 0 0 0 0 0 0 0 0 0 0 0 0 0 0 0 0 0 127 0" result="hardAlpha"/>
<feOffset/>
<feGaussianBlur stdDeviation="0.170743"/>
<feComposite in2="hardAlpha" operator="out"/>
<feColorMatrix type="matrix" values="0 0 0 0 0.592157 0 0 0 0 0.392157 0 0 0 0 1 0 0 0 1 0"/>
<feBlend mode="normal" in2="BackgroundImageFix" result="effect1_dropShadow_128_3"/>
<feBlend mode="normal" in="SourceGraphic" in2="effect1_dropShadow_128_3" result="shape"/>
</filter>
<filter id="filter5_d_128_3" x="30.2157" y="0.8385" width="2.32672" height="2.38416" filterUnits="userSpaceOnUse" color-interpolation-filters="sRGB">
<feFlood flood-opacity="0" result="BackgroundImageFix"/>
<feColorMatrix in="SourceAlpha" type="matrix" values="0 0 0 0 0 0 0 0 0 0 0 0 0 0 0 0 0 0 127 0" result="hardAlpha"/>
<feOffset/>
<feGaussianBlur stdDeviation="0.268311"/>
<feComposite in2="hardAlpha" operator="out"/>
<feColorMatrix type="matrix" values="0 0 0 0 0.592157 0 0 0 0 0.392157 0 0 0 0 1 0 0 0 1 0"/>
<feBlend mode="normal" in2="BackgroundImageFix" result="effect1_dropShadow_128_3"/>
<feBlend mode="normal" in="SourceGraphic" in2="effect1_dropShadow_128_3" result="shape"/>
</filter>
<filter id="filter6_d_128_3" x="3.00495" y="24.541" width="8.42463" height="8.71159" filterUnits="userSpaceOnUse" color-interpolation-filters="sRGB">
<feFlood flood-opacity="0" result="BackgroundImageFix"/>
<feColorMatrix in="SourceAlpha" type="matrix" values="0 0 0 0 0 0 0 0 0 0 0 0 0 0 0 0 0 0 127 0" result="hardAlpha"/>
<feOffset dy="0.281606"/>
<feGaussianBlur stdDeviation="0.540812"/>
<feComposite in2="hardAlpha" operator="out"/>
<feColorMatrix type="matrix" values="0 0 0 0 0.220722 0 0 0 0 0.210451 0 0 0 0 0.241667 0 0 0 0.6 0"/>
<feBlend mode="normal" in2="BackgroundImageFix" result="effect1_dropShadow_128_3"/>
<feBlend mode="normal" in="SourceGraphic" in2="effect1_dropShadow_128_3" result="shape"/>
</filter>
<filter id="filter7_f_128_3" x="0.829396" y="32.0122" width="67.2865" height="27.8032" filterUnits="userSpaceOnUse" color-interpolation-filters="sRGB">
<feFlood flood-opacity="0" result="BackgroundImageFix"/>
<feBlend mode="normal" in="SourceGraphic" in2="BackgroundImageFix" result="shape"/>
<feGaussianBlur stdDeviation="0.127195" result="effect1_foregroundBlur_128_3"/>
</filter>
<filter id="filter8_d_128_3" x="54.4629" y="7.06893" width="12.9035" height="13.2992" filterUnits="userSpaceOnUse" color-interpolation-filters="sRGB">
<feFlood flood-opacity="0" result="BackgroundImageFix"/>
<feColorMatrix in="SourceAlpha" type="matrix" values="0 0 0 0 0 0 0 0 0 0 0 0 0 0 0 0 0 0 127 0" result="hardAlpha"/>
<feOffset dy="0.554677"/>
<feGaussianBlur stdDeviation="1.06523"/>
<feComposite in2="hardAlpha" operator="out"/>
<feColorMatrix type="matrix" values="0 0 0 0 0.296824 0 0 0 0 0.244184 0 0 0 0 0.404167 0 0 0 0.6 0"/>
<feBlend mode="normal" in2="BackgroundImageFix" result="effect1_dropShadow_128_3"/>
<feBlend mode="normal" in="SourceGraphic" in2="effect1_dropShadow_128_3" result="shape"/>
</filter>
<linearGradient id="paint0_linear_128_3" x1="79.3557" y1="3.32624" x2="80.1487" y2="3.34216" gradientUnits="userSpaceOnUse">
<stop stop-color="#26A4FF"/>
<stop offset="1" stop-color="#0D9AFF"/>
</linearGradient>
<linearGradient id="paint1_linear_128_3" x1="12.9759" y1="13.0911" x2="15.0333" y2="13.1325" gradientUnits="userSpaceOnUse">
<stop stop-color="#26A4FF"/>
<stop offset="1" stop-color="#0D9AFF"/>
</linearGradient>
<linearGradient id="paint2_linear_128_3" x1="2.3188" y1="44.7849" x2="4.37617" y2="44.8259" gradientUnits="userSpaceOnUse">
<stop stop-color="#26A4FF"/>
<stop offset="1" stop-color="#0D9AFF"/>
</linearGradient>
<linearGradient id="paint3_linear_128_3" x1="63.5805" y1="53.4851" x2="65.6377" y2="53.5266" gradientUnits="userSpaceOnUse">
<stop stop-color="#26A4FF"/>
<stop offset="1" stop-color="#0D9AFF"/>
</linearGradient>
<linearGradient id="paint4_linear_128_3" x1="15.7229" y1="35.8971" x2="16.516" y2="35.9128" gradientUnits="userSpaceOnUse">
<stop stop-color="#26A4FF"/>
<stop offset="1" stop-color="#0D9AFF"/>
</linearGradient>
<linearGradient id="paint5_linear_128_3" x1="30.7896" y1="1.96278" x2="32.0357" y2="1.98782" gradientUnits="userSpaceOnUse">
<stop stop-color="#26A4FF"/>
<stop offset="1" stop-color="#0D9AFF"/>
</linearGradient>
<linearGradient id="paint6_linear_128_3" x1="10.1094" y1="27.8132" x2="3.8979" y2="28.837" gradientUnits="userSpaceOnUse">
<stop stop-color="#26A4FF"/>
<stop offset="1" stop-color="#0D9AFF"/>
</linearGradient>
<linearGradient id="paint7_linear_128_3" x1="10.193" y1="5.125" x2="74.0888" y2="66.2218" gradientUnits="userSpaceOnUse">
<stop stop-color="#868CFF"/>
<stop offset="1" stop-color="#4318FF"/>
</linearGradient>
<linearGradient id="paint8_linear_128_3" x1="2.47749" y1="62.3697" x2="-0.272129" y2="54.656" gradientUnits="userSpaceOnUse">
<stop stop-color="#3F5FFF"/>
<stop offset="1" stop-color="#3F5FFF" stop-opacity="0"/>
</linearGradient>
<linearGradient id="paint9_linear_128_3" x1="2.47748" y1="62.369" x2="-0.272132" y2="54.6555" gradientUnits="userSpaceOnUse">
<stop stop-color="#1DA0FF"/>
<stop offset="1" stop-color="#199FFF" stop-opacity="0.13"/>
</linearGradient>
<linearGradient id="paint10_linear_128_3" x1="65.0384" y1="13.3055" x2="56.4207" y2="12.3006" gradientUnits="userSpaceOnUse">
<stop stop-color="#26A4FF"/>
<stop offset="1" stop-color="#0D9AFF"/>
</linearGradient>
</defs>
</svg>
